<svg xmlns="http://www.w3.org/2000/svg" width="64.031" height="55.657" viewBox="0 0 64.031 55.657">
  <defs>
    <style>
      .cls-1 {
        fill: #fff;
        fill-rule: evenodd;
      }
    </style>
  </defs>
  <path id="camera" class="cls-1" d="M691.132,1005.01h52.03a5.985,5.985,0,0,1,6,5.97v35.77a5.983,5.983,0,0,1-6,5.96h-52.03a5.983,5.983,0,0,1-6-5.96v-35.77A5.985,5.985,0,0,1,691.132,1005.01Zm16.009-7.946h20.012c1.105,0,2,1.186,2,2.65v4.636c0,1.46-.9,2.65-2,2.65H707.141c-1.105,0-2-1.19-2-2.65v-4.636C705.14,998.25,706.036,997.064,707.141,997.064Zm10.006,13.916a17.885,17.885,0,1,1-18.01,17.88A17.943,17.943,0,0,1,717.147,1010.98Zm0,5.96a11.925,11.925,0,1,1-12.007,11.92A11.966,11.966,0,0,1,717.147,1016.94Zm0,7.95a3.975,3.975,0,1,1-4,3.97A3.987,3.987,0,0,1,717.147,1024.89Zm-8-23.85h16.01v1.99h-16.01v-1.99Z" transform="translate(-685.125 -997.063)"/>
</svg>
