<svg xmlns="http://www.w3.org/2000/svg" width="50.5" height="60.97" viewBox="0 0 50.5 60.97">
  <defs>
    <style>
      .cls-1 {
        fill: #fff;
        fill-rule: evenodd;
      }
    </style>
  </defs>
  <path id="docs.svg" class="cls-1" d="M263.191,1015.36h-1.385v-9.07H221.27v52.06h10.1v8.9h31.985l8.427-8.33v-43.56h-8.589Zm-10.2,40.45-0.025-6.34h6.314Zm-27.56-45.34h32.212v37.36h-6.313l0.026,6.34H225.432v-43.7Zm10.085,52.61v-4.73h17.836l8.453-8.35v-30.48h5.825v37.25h-6.293l0.027,6.31H235.517ZM263,1064.73l-0.026-6.33h6.3Zm-30.041-40.66h17.15a1.475,1.475,0,0,0,0-2.95h-17.15A1.475,1.475,0,0,0,232.955,1024.07Zm0,8.37h17.15a1.475,1.475,0,0,0,0-2.95h-17.15A1.475,1.475,0,0,0,232.955,1032.44Zm17.15,5.42h-17.15a1.475,1.475,0,0,0,0,2.95h17.15A1.475,1.475,0,0,0,250.105,1037.86Z" transform="translate(-221.281 -1006.28)"/>
</svg>
