<svg xmlns="http://www.w3.org/2000/svg" xmlns:xlink="http://www.w3.org/1999/xlink" width="156" height="157" viewBox="0 0 156 157">
  <defs>
    <style>
      .cls-1 {
        fill: #fff;
        fill-rule: evenodd;
        filter: url(#filter);
      }
    </style>
    <filter id="filter" x="554" y="1284" width="156" height="157" filterUnits="userSpaceOnUse">
      <feOffset result="offset" dy="2" in="SourceAlpha"/>
      <feGaussianBlur result="blur" stdDeviation="1"/>
      <feFlood result="flood" flood-opacity="0.24"/>
      <feComposite result="composite" operator="in" in2="blur"/>
      <feBlend result="blend" in="SourceGraphic"/>
    </filter>
  </defs>
  <path id="_1" data-name="1" class="cls-1" d="M574.124,1341.37v86.07a9.562,9.562,0,0,0,9.563,9.56h114.75a9.561,9.561,0,0,0,9.562-9.56v-86.07a9.561,9.561,0,0,0-9.562-9.56H583.687A9.562,9.562,0,0,0,574.124,1341.37Zm14.344,4.79v76.5H688.874v-76.5H588.468Zm-14.344-14.35h90.844v90.85H574.124v-90.85ZM564.562,1284h86.062a9.561,9.561,0,0,1,9.563,9.56v114.75a9.561,9.561,0,0,1-9.563,9.56H564.562a9.561,9.561,0,0,1-9.563-9.56V1293.56A9.561,9.561,0,0,1,564.562,1284Zm4.781,14.34h76.5v100.41h-76.5V1298.34Zm38.25,105.19a4.78,4.78,0,1,1-4.781,4.78A4.78,4.78,0,0,1,607.593,1403.53Zm90.844-23.91a4.785,4.785,0,1,1-4.782,4.79A4.782,4.782,0,0,1,698.437,1379.62Z" transform="translate(-554 -1284)"/>
</svg>
