<svg xmlns="http://www.w3.org/2000/svg" xmlns:xlink="http://www.w3.org/1999/xlink" width="275" height="231" viewBox="0 0 275 231">
  <defs>
    <style>
      .cls-1 {
        fill: #fff;
        fill-rule: evenodd;
        filter: url(#filter);
      }
    </style>
    <filter id="filter" x="231" y="2117" width="275" height="231" filterUnits="userSpaceOnUse">
      <feOffset result="offset" dy="2" in="SourceAlpha"/>
      <feGaussianBlur result="blur" stdDeviation="1"/>
      <feFlood result="flood" flood-opacity="0.24"/>
      <feComposite result="composite" operator="in" in2="blur"/>
      <feBlend result="blend" in="SourceGraphic"/>
    </filter>
  </defs>
  <path id="second-sect-icon" class="cls-1" d="M277.331,2117H458.665a27.216,27.216,0,0,1,27.2,27.24v118.04a27.223,27.223,0,0,1-27.2,27.24H277.331a27.223,27.223,0,0,1-27.2-27.24V2144.24A27.216,27.216,0,0,1,277.331,2117Zm-27.2,154.36h27.2v18.16h-27.2v-18.16Zm208.534,0h27.2v18.16h-27.2v-18.16ZM277.331,2144.24H458.665v163.44H277.331V2144.24Zm-27.2,163.44H485.865A18.147,18.147,0,0,1,504,2325.84c0,10.03-17.186,18.16-27.2,18.16H259.2c-10.015,0-27.2-8.13-27.2-18.16A18.147,18.147,0,0,1,250.131,2307.68Zm90.667,18.16h54.4c5.007,0,9.067,2.03,9.067,4.54s-4.06,4.54-9.067,4.54H340.8c-5.007,0-9.066-2.03-9.066-4.54S335.791,2325.84,340.8,2325.84ZM307.12,2223.53l12.765-12.84a8.982,8.982,0,0,1,12.766,0l31.913,32.1a9.119,9.119,0,0,1,0,12.84L351.8,2268.47a8.982,8.982,0,0,1-12.766,0l-31.913-32.1A9.117,9.117,0,0,1,307.12,2223.53Zm108.958-50.27,12.766,12.85a9.119,9.119,0,0,1,0,12.84l-70.209,70.62a8.982,8.982,0,0,1-12.766,0L333.1,2256.73a9.117,9.117,0,0,1,0-12.84l70.209-70.63A9,9,0,0,1,416.078,2173.26Z" transform="translate(-231 -2117)"/>
</svg>
