<svg style="display: none">

  <symbol id="camera" xmlns="http://www.w3.org/2000/svg" width="64.031" height="55.657" viewBox="0 0 64.031 55.657">
    <defs>
      <style>
      .cls-1 {
        fill: #fff;
        fill-rule: evenodd;
      }
      </style>
    </defs>
    <path class="cls-1" d="M691.132,1005.01h52.03a5.985,5.985,0,0,1,6,5.97v35.77a5.983,5.983,0,0,1-6,5.96h-52.03a5.983,5.983,0,0,1-6-5.96v-35.77A5.985,5.985,0,0,1,691.132,1005.01Zm16.009-7.946h20.012c1.105,0,2,1.186,2,2.65v4.636c0,1.46-.9,2.65-2,2.65H707.141c-1.105,0-2-1.19-2-2.65v-4.636C705.14,998.25,706.036,997.064,707.141,997.064Zm10.006,13.916a17.885,17.885,0,1,1-18.01,17.88A17.943,17.943,0,0,1,717.147,1010.98Zm0,5.96a11.925,11.925,0,1,1-12.007,11.92A11.966,11.966,0,0,1,717.147,1016.94Zm0,7.95a3.975,3.975,0,1,1-4,3.97A3.987,3.987,0,0,1,717.147,1024.89Zm-8-23.85h16.01v1.99h-16.01v-1.99Z" transform="translate(-685.125 -997.063)"/>
  </symbol>


  <symbol id="docs" xmlns="http://www.w3.org/2000/svg" width="50.5" height="60.97" viewBox="0 0 50.5 60.97">
    <defs>
      <style>
        .cls-1 {
          fill: #fff;
          fill-rule: evenodd;
        }
      </style>
    </defs>
    <path id="docs.svg" class="cls-1" d="M263.191,1015.36h-1.385v-9.07H221.27v52.06h10.1v8.9h31.985l8.427-8.33v-43.56h-8.589Zm-10.2,40.45-0.025-6.34h6.314Zm-27.56-45.34h32.212v37.36h-6.313l0.026,6.34H225.432v-43.7Zm10.085,52.61v-4.73h17.836l8.453-8.35v-30.48h5.825v37.25h-6.293l0.027,6.31H235.517ZM263,1064.73l-0.026-6.33h6.3Zm-30.041-40.66h17.15a1.475,1.475,0,0,0,0-2.95h-17.15A1.475,1.475,0,0,0,232.955,1024.07Zm0,8.37h17.15a1.475,1.475,0,0,0,0-2.95h-17.15A1.475,1.475,0,0,0,232.955,1032.44Zm17.15,5.42h-17.15a1.475,1.475,0,0,0,0,2.95h17.15A1.475,1.475,0,0,0,250.105,1037.86Z" transform="translate(-221.281 -1006.28)"/>
  </symbol>

  <symbol id="first-sect-icon" xmlns="http://www.w3.org/2000/svg" xmlns:xlink="http://www.w3.org/1999/xlink" width="156" height="157" viewBox="0 0 156 157">
    <defs>
      <style>
        .cls-1 {
          fill: #fff;
          fill-rule: evenodd;
          filter: url(#filter);
        }
      </style>
      <filter id="filter" x="554" y="1284" width="156" height="157" filterUnits="userSpaceOnUse">
        <feOffset result="offset" dy="2" in="SourceAlpha"/>
        <feGaussianBlur result="blur" stdDeviation="1"/>
        <feFlood result="flood" flood-opacity="0.24"/>
        <feComposite result="composite" operator="in" in2="blur"/>
        <feBlend result="blend" in="SourceGraphic"/>
      </filter>
    </defs>
    <path id="_1" data-name="1" class="cls-1" d="M574.124,1341.37v86.07a9.562,9.562,0,0,0,9.563,9.56h114.75a9.561,9.561,0,0,0,9.562-9.56v-86.07a9.561,9.561,0,0,0-9.562-9.56H583.687A9.562,9.562,0,0,0,574.124,1341.37Zm14.344,4.79v76.5H688.874v-76.5H588.468Zm-14.344-14.35h90.844v90.85H574.124v-90.85ZM564.562,1284h86.062a9.561,9.561,0,0,1,9.563,9.56v114.75a9.561,9.561,0,0,1-9.563,9.56H564.562a9.561,9.561,0,0,1-9.563-9.56V1293.56A9.561,9.561,0,0,1,564.562,1284Zm4.781,14.34h76.5v100.41h-76.5V1298.34Zm38.25,105.19a4.78,4.78,0,1,1-4.781,4.78A4.78,4.78,0,0,1,607.593,1403.53Zm90.844-23.91a4.785,4.785,0,1,1-4.782,4.79A4.782,4.782,0,0,1,698.437,1379.62Z" transform="translate(-554 -1284)"/>
  </symbol>

  <symbol id="second-sect-icon" xmlns="http://www.w3.org/2000/svg" xmlns:xlink="http://www.w3.org/1999/xlink" width="275" height="231" viewBox="0 0 275 231">
    <defs>
      <style>
        .cls-1 {
          fill: #fff;
          fill-rule: evenodd;
          filter: url(#filter);
        }
      </style>
      <filter id="filter" x="231" y="2117" width="275" height="231" filterUnits="userSpaceOnUse">
        <feOffset result="offset" dy="2" in="SourceAlpha"/>
        <feGaussianBlur result="blur" stdDeviation="1"/>
        <feFlood result="flood" flood-opacity="0.24"/>
        <feComposite result="composite" operator="in" in2="blur"/>
        <feBlend result="blend" in="SourceGraphic"/>
      </filter>
    </defs>
    <path id="second-sect-icon" class="cls-1" d="M277.331,2117H458.665a27.216,27.216,0,0,1,27.2,27.24v118.04a27.223,27.223,0,0,1-27.2,27.24H277.331a27.223,27.223,0,0,1-27.2-27.24V2144.24A27.216,27.216,0,0,1,277.331,2117Zm-27.2,154.36h27.2v18.16h-27.2v-18.16Zm208.534,0h27.2v18.16h-27.2v-18.16ZM277.331,2144.24H458.665v163.44H277.331V2144.24Zm-27.2,163.44H485.865A18.147,18.147,0,0,1,504,2325.84c0,10.03-17.186,18.16-27.2,18.16H259.2c-10.015,0-27.2-8.13-27.2-18.16A18.147,18.147,0,0,1,250.131,2307.68Zm90.667,18.16h54.4c5.007,0,9.067,2.03,9.067,4.54s-4.06,4.54-9.067,4.54H340.8c-5.007,0-9.066-2.03-9.066-4.54S335.791,2325.84,340.8,2325.84ZM307.12,2223.53l12.765-12.84a8.982,8.982,0,0,1,12.766,0l31.913,32.1a9.119,9.119,0,0,1,0,12.84L351.8,2268.47a8.982,8.982,0,0,1-12.766,0l-31.913-32.1A9.117,9.117,0,0,1,307.12,2223.53Zm108.958-50.27,12.766,12.85a9.119,9.119,0,0,1,0,12.84l-70.209,70.62a8.982,8.982,0,0,1-12.766,0L333.1,2256.73a9.117,9.117,0,0,1,0-12.84l70.209-70.63A9,9,0,0,1,416.078,2173.26Z" transform="translate(-231 -2117)"/>
  </symbol>


</svg>